<?xml version="1.0" standalone="no"?>
<!DOCTYPE svg PUBLIC "-//W3C//DTD SVG 20010904//EN"
 "http://www.w3.org/TR/2001/REC-SVG-20010904/DTD/svg10.dtd">
<svg version="1.0" xmlns="http://www.w3.org/2000/svg"
 width="500.000000pt" height="500.000000pt" viewBox="0 0 500.000000 500.000000"
 preserveAspectRatio="xMidYMid meet">

<g transform="translate(0.000000,500.000000) scale(0.100000,-0.100000)"
fill="#000000" stroke="none">
<path d="M3323 2922 c-29 -14 -53 -29 -53 -33 0 -4 14 -12 30 -18 l30 -10 0
-310 0 -310 23 -13 c12 -6 61 -14 108 -16 95 -5 139 10 191 65 103 108 59 325
-73 358 -22 6 -75 -8 -151 -40 -17 -7 -18 5 -18 174 0 207 4 200 -87 153z
m253 -368 c48 -32 74 -129 54 -203 -18 -66 -57 -101 -115 -101 -38 0 -52 5
-76 29 -29 29 -29 30 -29 149 l0 120 38 16 c41 17 91 13 128 -10z"/>
<path d="M2181 2848 c-12 -34 -22 -148 -12 -148 4 0 13 18 20 40 6 21 21 46
34 55 22 16 108 20 166 9 l31 -6 0 -257 c0 -141 -4 -261 -8 -267 -10 -16 -48
-34 -71 -34 -11 0 -23 -4 -26 -10 -4 -7 50 -10 154 -10 101 0 161 4 161 10 0
6 -13 10 -29 10 -15 0 -40 9 -55 21 l-26 20 0 258 0 259 31 6 c17 3 58 6 91 6
49 0 63 -4 84 -25 13 -13 27 -38 30 -55 11 -54 26 -33 19 28 -12 108 -21 132
-40 102 -9 -14 -500 -13 -526 0 -16 9 -21 7 -28 -12z"/>
<path d="M1133 2853 c-29 -6 -29 -11 2 -35 23 -18 25 -26 24 -101 0 -45 -6
-162 -13 -261 -11 -167 -14 -180 -35 -197 -13 -11 -29 -19 -37 -19 -8 0 -14
-4 -14 -10 0 -6 43 -10 110 -10 67 0 110 4 110 10 0 6 -9 10 -19 10 -10 0 -29
8 -42 19 l-23 19 12 158 c6 87 16 162 21 167 13 13 45 -41 134 -225 43 -90 81
-158 89 -158 8 0 53 81 106 190 50 105 96 190 101 190 5 0 12 -8 16 -17 11
-27 30 -297 22 -316 -4 -10 -20 -20 -37 -23 -49 -10 -34 -21 39 -28 71 -6 191
2 191 13 0 4 -16 13 -34 19 -19 7 -37 21 -40 30 -2 9 -10 131 -17 271 -11 241
-11 255 6 267 10 7 23 15 29 17 20 7 1 17 -47 23 -83 12 -88 8 -153 -133 -92
-198 -148 -307 -159 -306 -11 0 -64 100 -150 287 -32 71 -65 135 -73 142 -13
13 -70 17 -119 7z"/>
<path d="M3897 2626 c-131 -47 -179 -235 -90 -354 62 -83 167 -84 264 -3 46
39 34 45 -29 14 -67 -33 -111 -26 -163 25 -36 37 -60 107 -44 132 4 6 55 10
129 10 140 0 151 5 136 61 -14 51 -65 107 -108 119 -46 12 -48 12 -95 -4z m94
-55 c17 -18 29 -40 29 -56 l0 -26 -82 3 c-75 3 -83 5 -86 24 -4 30 49 84 83
84 16 0 38 -11 56 -29z"/>
<path d="M1875 2621 c-3 -6 8 -17 26 -26 26 -14 45 -46 120 -201 l89 -184 -38
-87 c-30 -71 -45 -93 -75 -112 -39 -26 -47 -50 -22 -71 26 -22 62 -4 83 42 22
48 114 268 187 453 56 140 70 165 97 165 11 0 18 5 16 13 -3 8 -32 13 -88 15
-91 3 -125 -10 -72 -29 17 -6 34 -19 37 -29 7 -21 -49 -181 -74 -211 -16 -20
-18 -18 -75 101 -61 127 -62 139 -13 140 11 0 17 6 15 13 -6 15 -203 23 -213
8z"/>
<path d="M2850 2618 c-49 -14 -58 -25 -28 -37 33 -12 38 -40 38 -207 0 -126 1
-134 22 -148 31 -22 114 -20 167 4 55 25 71 25 71 -1 0 -25 17 -23 96 12 l49
22 -32 9 -33 9 0 128 c0 177 -7 221 -34 220 -29 -1 -89 -23 -93 -35 -2 -5 7
-14 19 -19 22 -10 23 -16 26 -137 2 -118 1 -128 -18 -146 -40 -37 -138 -32
-160 8 -5 10 -10 88 -10 174 0 175 4 168 -80 144z"/>
</g>
</svg>
