<svg class="svg-icon" style="width: 1em;height: 1em;vertical-align: middle;fill: currentColor;overflow: hidden;" viewBox="0 0 1024 1024" version="1.1" xmlns="http://www.w3.org/2000/svg"><path d="M823.9104 839.8848H200.0896c-36.864 0-66.9696-30.5152-66.9696-67.9936V350.8224c0-37.4784 30.1056-67.9936 66.9696-67.9936H348.16c5.7344 0 11.0592-3.6864 13.5168-9.4208l21.0944-49.5616c10.24-23.7568 33.9968-39.7312 59.1872-39.7312h139.8784c25.3952 0 49.152 15.9744 59.1872 39.7312l21.0944 49.5616c2.4576 5.7344 7.7824 9.4208 13.5168 9.4208h148.0704c36.864 0 66.9696 30.5152 66.9696 67.9936v420.864c0.2048 37.6832-29.9008 68.1984-66.7648 68.1984zM200.0896 344.2688c-3.072 0-5.5296 2.8672-5.5296 6.5536v420.864c0 3.6864 2.4576 6.5536 5.5296 6.5536h623.8208c3.072 0 5.5296-2.8672 5.5296-6.5536V350.8224c0-3.6864-2.4576-6.5536-5.5296-6.5536H675.84c-30.5152 0-57.9584-18.432-70.0416-46.6944l-21.0944-49.5616c-0.6144-1.4336-2.2528-2.2528-2.6624-2.2528h-139.8784c-0.6144 0-2.048 0.8192-2.6624 2.2528l-21.0944 49.5616a76.22656 76.22656 0 0 1-70.0416 46.6944H200.0896z" fill="#2F4072" /><path d="M512 740.5568c-100.5568 0-182.272-82.1248-182.272-183.296s81.7152-183.296 182.272-183.296 182.272 82.1248 182.272 183.296-81.7152 183.296-182.272 183.296z m0-325.632c-77.824 0-141.312 63.8976-141.312 142.336s63.2832 142.336 141.312 142.336 141.312-63.8976 141.312-142.336-63.488-142.336-141.312-142.336z" fill="#2F4072" /><path d="M512 659.6608c-11.264 0-20.48-9.216-20.48-20.48V475.136c0-11.264 9.216-20.48 20.48-20.48s20.48 9.216 20.48 20.48v164.0448c0 11.4688-9.216 20.48-20.48 20.48z" fill="#FE76FF" /><path d="M593.5104 577.7408h-163.0208c-11.264 0-20.48-9.216-20.48-20.48s9.216-20.48 20.48-20.48h163.0208c11.264 0 20.48 9.216 20.48 20.48s-9.216 20.48-20.48 20.48z" fill="#FE76FF" /></svg>